<?xml version="1.0" standalone="no"?>
<!DOCTYPE svg PUBLIC "-//W3C//DTD SVG 20010904//EN"
 "http://www.w3.org/TR/2001/REC-SVG-20010904/DTD/svg10.dtd">
<svg version="1.0" xmlns="http://www.w3.org/2000/svg"
 width="890.000000pt" height="890.000000pt" viewBox="0 0 890.000000 890.000000"
 preserveAspectRatio="xMidYMid meet">

<g transform="translate(0.000000,890.000000) scale(0.100000,-0.100000)"
fill="#000000" stroke="none">
<path d="M4235 8883 c-122 -10 -210 -43 -735 -273 -47 -21 -137 -60 -200 -87
-63 -28 -222 -98 -353 -157 -131 -58 -240 -106 -242 -106 -2 0 -53 -22 -112
-49 -59 -27 -191 -86 -293 -131 -102 -45 -277 -124 -390 -175 -113 -51 -272
-123 -355 -160 -82 -37 -188 -85 -235 -107 -47 -22 -105 -48 -130 -58 -25 -10
-187 -84 -359 -164 -344 -159 -380 -183 -421 -278 l-21 -48 21 -48 c43 -99
113 -144 480 -310 85 -38 236 -107 335 -152 99 -45 284 -129 410 -185 127 -57
327 -147 445 -200 209 -95 442 -198 665 -295 258 -112 372 -162 570 -250 116
-51 251 -109 300 -130 50 -21 162 -69 250 -107 261 -114 307 -124 580 -124
172 -1 253 5 335 22 46 11 422 169 945 399 165 73 350 154 410 180 132 57 610
269 713 316 41 19 75 34 77 34 1 0 45 20 96 44 52 24 172 78 268 120 95 43
307 138 470 212 163 75 312 143 331 151 19 9 99 47 177 84 125 60 147 74 182
118 21 28 45 67 51 87 26 78 -47 177 -178 243 -233 117 -1738 794 -2702 1216
-815 357 -800 351 -923 364 -88 10 -364 12 -462 4z m132 -783 c71 -40 193
-159 193 -187 0 -27 -22 -34 -190 -67 -369 -72 -622 -182 -757 -330 -67 -73
-87 -130 -72 -209 12 -68 40 -137 62 -155 17 -14 121 26 462 178 212 95 308
130 357 130 78 0 298 -103 306 -142 4 -20 -65 -54 -493 -248 -346 -157 -329
-148 -315 -165 7 -8 43 -30 81 -49 55 -28 74 -33 96 -26 52 16 222 88 440 186
225 101 433 184 464 184 64 0 255 -82 283 -122 14 -20 14 -24 -1 -40 -21 -23
-162 -95 -406 -207 -109 -49 -212 -100 -229 -112 l-31 -22 23 -9 c55 -20 464
-31 635 -16 227 19 468 85 652 176 105 52 167 96 282 201 122 112 105 105 221
81 142 -30 340 -97 340 -116 0 -37 -157 -195 -270 -271 -288 -193 -790 -340
-1310 -383 -98 -8 -482 -5 -535 4 -16 3 -55 7 -85 11 -104 11 -265 36 -389 61
l-125 25 -75 -30 c-174 -68 -222 -74 -316 -39 -100 37 -195 93 -195 115 0 21
28 44 89 73 28 13 51 27 51 31 0 15 -159 79 -196 79 -13 0 -52 -12 -87 -26
-112 -46 -200 -37 -349 36 -127 62 -124 86 19 152 51 23 93 46 93 50 0 4 -23
33 -51 65 -172 197 -193 422 -55 598 102 129 315 267 576 372 166 67 252 95
460 148 217 55 273 57 347 15z"/>
<path d="M8395 6231 c-78 -32 -433 -189 -625 -276 -69 -31 -251 -113 -405
-182 -154 -69 -327 -146 -385 -173 -168 -76 -399 -181 -625 -283 -115 -52
-343 -156 -505 -230 -754 -344 -695 -313 -799 -419 -139 -142 -250 -360 -280
-553 -14 -91 -16 -461 -13 -2230 l3 -1620 40 -75 c75 -139 138 -180 278 -180
95 0 178 31 671 248 291 128 1473 657 1865 834 61 28 144 65 185 83 41 17 200
89 353 158 153 70 283 127 289 127 20 0 218 204 267 275 67 96 116 198 147
302 23 79 27 113 34 318 4 127 6 999 4 1938 l-3 1708 -42 79 c-71 137 -144
180 -303 180 -66 -1 -94 -6 -151 -29z m-1342 -1382 c35 -27 46 -72 50 -214 l3
-120 215 -6 c221 -5 253 -11 297 -51 42 -40 27 -96 -68 -248 -72 -116 -115
-166 -152 -179 -17 -6 -85 -13 -152 -16 -67 -3 -143 -8 -170 -11 -108 -11
-325 -102 -455 -189 -198 -133 -274 -310 -154 -356 36 -13 178 -27 353 -33
448 -17 485 -20 595 -37 33 -5 75 -13 93 -18 86 -25 186 -110 229 -196 49 -95
41 -310 -16 -459 -84 -219 -287 -467 -509 -625 -56 -39 -102 -73 -102 -74 0
-1 -3 -56 -6 -122 -9 -207 -28 -275 -92 -322 -67 -49 -313 -159 -375 -167 -44
-5 -73 14 -83 57 -4 17 -8 88 -9 157 -1 144 11 134 -120 106 -97 -21 -265 -28
-359 -15 -114 17 -186 61 -186 115 0 61 203 365 251 377 13 3 74 9 134 12 248
13 393 47 580 134 293 138 482 363 395 473 -46 60 -147 75 -514 77 -131 1
-262 4 -290 6 -28 2 -92 7 -143 10 -199 12 -305 76 -369 221 -10 25 -18 76
-21 144 -4 89 -1 119 21 203 33 130 101 261 191 372 98 121 297 313 368 356
38 22 57 40 58 54 1 11 2 77 4 146 4 212 35 262 215 352 95 47 235 105 256
106 6 1 23 -8 37 -20z"/>
</g>
</svg>
